{
  "accessors": [
    {
      "bufferView": 2,
      "componentType": 5126,
      "count": 2613,
      "max": [
        0.03840000182390213,
        0.04039999842643738,
        0.125
      ],
      "min": [
        -0.02329999953508377,
        -0.04039999842643738,
        0.04969999939203262
      ],
      "type": "VEC3"
    },
    {
      "bufferView": 2,
      "byteOffset": 31356,
      "componentType": 5126,
      "count": 2613,
      "max": [
        0.9999597668647766,
        1.0,
        1.0
      ],
      "min": [
        -0.9999839067459106,
        -1.0,
        -1.0
      ],
      "type": "VEC3"
    },
    {
      "bufferView": 1,
      "componentType": 5126,
      "count": 2613,
      "max": [
        0.9872000217437744,
        0.9868999719619751
      ],
      "min": [
        0.007000000216066837,
        0.0066999997943639755
      ],
      "type": "VEC2"
    },
    {
      "bufferView": 0,
      "componentType": 5125,
      "count": 11652,
      "type": "SCALAR"
    },
    {
      "bufferView": 2,
      "byteOffset": 62712,
      "componentType": 5126,
      "count": 3042,
      "max": [
        0.020400000736117363,
        0.07680000364780426,
        0.06769999861717224
      ],
      "min": [
        -0.008200000040233135,
        -0.07680000364780426,
        0.0
      ],
      "type": "VEC3"
    },
    {
      "bufferView": 2,
      "byteOffset": 99216,
      "componentType": 5126,
      "count": 3042,
      "max": [
        1.0,
        1.0,
        1.0
      ],
      "min": [
        -1.0,
        -1.0,
        -1.0
      ],
      "type": "VEC3"
    },
    {
      "bufferView": 1,
      "byteOffset": 20904,
      "componentType": 5126,
      "count": 3042,
      "max": [
        0.9940999746322632,
        0.9911999702453613
      ],
      "min": [
        0.012900000438094139,
        0.010700000450015068
      ],
      "type": "VEC2"
    },
    {
      "bufferView": 0,
      "byteOffset": 46608,
      "componentType": 5125,
      "count": 11604,
      "type": "SCALAR"
    }
  ],
  "asset": {
    "extras": {
      "author": "italianPie (https://sketchfab.com/italianPie)",
      "license": "CC-BY-4.0 (http://creativecommons.org/licenses/by/4.0/)",
      "source": "https://sketchfab.com/3d-models/sponge-bob-0f94434362014064a357fe9bba155cd4",
      "title": "Sponge Bob"
    },
    "generator": "Sketchfab-16.44.0",
    "version": "2.0"
  },
  "bufferViews": [
    {
      "buffer": 0,
      "byteLength": 93024,
      "name": "floatBufferViews",
      "target": 34963
    },
    {
      "buffer": 0,
      "byteLength": 45240,
      "byteOffset": 93024,
      "byteStride": 8,
      "name": "floatBufferViews",
      "target": 34962
    },
    {
      "buffer": 0,
      "byteLength": 135720,
      "byteOffset": 138264,
      "byteStride": 12,
      "name": "floatBufferViews",
      "target": 34962
    }
  ],
  "buffers": [
    {
      "byteLength": 273984,
      "uri": "scene.bin"
    }
  ],
  "images": [
    {
      "uri": "textures/wire_028149177_baseColor.png"
    }
  ],
  "materials": [
    {
      "doubleSided": true,
      "name": "wire_028149177",
      "pbrMetallicRoughness": {
        "baseColorTexture": {
          "index": 0
        },
        "metallicFactor": 0.0,
        "roughnessFactor": 0.9187791474512871
      }
    },
    {
      "doubleSided": true,
      "name": "wire_087225087",
      "pbrMetallicRoughness": {
        "baseColorTexture": {
          "index": 0
        },
        "metallicFactor": 0.0,
        "roughnessFactor": 0.9187791474512871
      }
    }
  ],
  "meshes": [
    {
      "name": "Object_0",
      "primitives": [
        {
          "attributes": {
            "NORMAL": 1,
            "POSITION": 0,
            "TEXCOORD_0": 2
          },
          "indices": 3,
          "material": 0,
          "mode": 4
        }
      ]
    },
    {
      "name": "Object_1",
      "primitives": [
        {
          "attributes": {
            "NORMAL": 5,
            "POSITION": 4,
            "TEXCOORD_0": 6
          },
          "indices": 7,
          "material": 1,
          "mode": 4
        }
      ]
    }
  ],
  "nodes": [
    {
      "children": [
        1
      ],
      "matrix": [
        9642.1025390625,
        0.0,
        0.0,
        0.0,
        0.0,
        2.140976848932774e-12,
        -9642.1025390625,
        0.0,
        0.0,
        9642.1025390625,
        2.140976848932774e-12,
        0.0,
        0.0,
        0.0,
        0.0,
        1.0
      ],
      "name": "Sketchfab_model"
    },
    {
      "children": [
        2,
        3
      ],
      "name": "SpongebobDefault.obj.cleaner.materialmerger.gles"
    },
    {
      "mesh": 0,
      "name": "Object_2"
    },
    {
      "mesh": 1,
      "name": "Object_3"
    }
  ],
  "samplers": [
    {
      "magFilter": 9729,
      "minFilter": 9987,
      "wrapS": 10497,
      "wrapT": 10497
    }
  ],
  "scene": 0,
  "scenes": [
    {
      "name": "Sketchfab_Scene",
      "nodes": [
        0
      ]
    }
  ],
  "textures": [
    {
      "sampler": 0,
      "source": 0
    }
  ]
}
